<svg version="1.1" id="Layer_1" xmlns="http://www.w3.org/2000/svg" xmlns:xlink="http://www.w3.org/1999/xlink" x="0px" y="0px"
	 width="100%" viewBox="0 0 81 81" enable-background="new 0 0 81 81" xml:space="preserve">
<path fill="#FF1515" opacity="1.000000" stroke="none" 
	d="
M82.000000,26.000000 
	C82.000000,27.388998 82.000000,28.777994 81.643417,30.712507 
	C80.824051,37.277157 76.669632,40.418156 71.672760,43.107410 
	C70.918968,43.200962 70.498367,43.349224 69.609314,43.419891 
	C59.750362,43.190964 50.359867,43.039619 40.977200,42.429237 
	C40.993896,37.035973 41.002762,32.101738 41.474247,27.094341 
	C47.089691,27.011869 52.246464,27.127192 57.394409,26.964060 
	C65.124474,26.719105 69.805244,21.814545 70.253311,13.983610 
	C70.481598,13.976213 70.936646,14.016389 71.289215,14.085819 
	C77.544540,15.960973 79.655586,21.082527 82.000000,26.000000 
z"/>
<path fill="#209CF0" opacity="1.000000" stroke="none" 
	d="
M1.000000,63.000000 
	C1.000000,59.638470 1.000000,56.276943 1.323896,52.331528 
	C4.430510,48.889778 7.213228,46.031914 10.296426,43.100525 
	C11.009287,43.020668 11.421669,43.014343 11.901851,43.471516 
	C11.979938,49.264759 11.921990,54.595715 12.016932,59.923946 
	C12.150437,67.416359 16.771832,72.035202 24.182209,72.176872 
	C29.838448,72.285011 35.495682,72.341110 41.186516,72.461395 
	C41.220562,72.502426 41.154900,72.586449 40.830879,72.765945 
	C37.004574,75.963638 33.502289,78.981819 30.000000,82.000000 
	C28.285578,82.000000 26.571157,82.000000 24.274319,81.659431 
	C19.045366,80.913483 15.863358,78.444351 13.764442,74.371437 
	C13.337627,73.543213 12.684967,72.213867 12.087392,72.186508 
	C6.011823,71.908363 3.969412,66.917900 1.000000,63.000000 
z"/>
<path fill="#1D9BF0" opacity="1.000000" stroke="none" 
	d="
M21.000000,1.000000 
	C24.362101,1.000000 27.724203,1.000000 31.667942,1.326389 
	C35.166409,4.490739 38.083237,7.328701 41.000099,10.532856 
	C40.999863,11.875275 40.999588,12.851499 40.535618,13.895617 
	C33.355804,14.243734 26.639688,14.523960 19.666668,14.491781 
	C16.916809,14.089790 14.423855,14.000204 11.959396,13.523111 
	C12.202945,7.019256 16.864384,4.204870 21.000000,1.000000 
z"/>
<path fill="#FF0A0A" opacity="1.000000" stroke="none" 
	d="
M40.999313,13.827724 
	C40.999588,12.851499 40.999863,11.875275 41.321297,10.372492 
	C44.428303,6.897288 47.214149,3.948644 50.000000,1.000000 
	C53.362103,1.000000 56.724201,1.000000 60.646374,1.340027 
	C67.346375,3.507548 69.154556,8.751677 70.936646,14.016389 
	C70.936646,14.016389 70.481598,13.976213 69.783035,13.985929 
	C59.722759,13.939673 50.361034,13.883698 40.999313,13.827724 
z"/>
<path fill="#2199ED" opacity="1.000000" stroke="none" 
	d="
M70.077774,43.497482 
	C70.498367,43.349224 70.918968,43.200962 71.842316,43.402805 
	C78.168167,45.265896 79.610931,50.539120 82.000000,55.000000 
	C82.000000,56.388897 82.000000,57.777790 81.659470,59.737095 
	C80.298424,66.951752 76.320297,70.789902 69.489685,72.245590 
	C66.755814,72.068153 64.448242,71.971268 62.363228,71.640305 
	C67.381889,68.868401 70.601357,65.374451 69.872787,58.964317 
	C69.969597,53.477989 70.023682,48.487736 70.077774,43.497482 
z"/>
<path fill="#FB191A" opacity="1.000000" stroke="none" 
	d="
M11.930901,13.910618 
	C14.423855,14.000204 16.916809,14.089790 19.326828,14.582276 
	C13.920962,17.596113 11.772036,21.914776 11.959476,27.764915 
	C12.122063,32.839401 11.891085,37.926495 11.834051,43.008018 
	C11.421669,43.014343 11.009287,43.020668 9.976826,42.953438 
	C6.571165,39.919926 3.785583,36.959961 1.000000,34.000000 
	C1.000000,30.638712 1.000000,27.277426 1.335593,23.349121 
	C3.696643,18.212290 7.083777,15.217228 11.930901,13.910618 
z"/>
<path fill="#FFFFFF" opacity="1.000000" stroke="none" 
	d="
M71.289215,14.085819 
	C69.154556,8.751677 67.346375,3.507548 61.103222,1.340027 
	C67.932716,1.000000 74.865425,1.000000 82.000000,1.000000 
	C82.000000,9.019755 82.000000,17.041199 82.000000,25.531321 
	C79.655586,21.082527 77.544540,15.960973 71.289215,14.085819 
z"/>
<path fill="#FFFFFF" opacity="1.000000" stroke="none" 
	d="
M11.959396,13.523111 
	C7.083777,15.217228 3.696643,18.212290 1.335593,22.891052 
	C1.000000,15.744080 1.000000,8.488159 1.000000,1.000000 
	C7.352096,1.000000 13.707006,1.000000 20.530956,1.000000 
	C16.864384,4.204870 12.202945,7.019256 11.959396,13.523111 
z"/>
<path fill="#F91417" opacity="1.000000" stroke="none" 
	d="
M62.140671,71.874374 
	C64.448242,71.971268 66.755814,72.068153 69.291260,72.503555 
	C66.012764,75.894714 62.506382,78.947357 59.000000,82.000000 
	C57.285641,82.000000 55.571285,82.000000 53.291107,81.646927 
	C46.733971,81.227737 44.193722,76.575836 41.154900,72.586449 
	C41.154900,72.586449 41.220562,72.502426 41.644142,72.426865 
	C48.758701,72.192337 55.449688,72.033356 62.140671,71.874374 
z"/>
<path fill="#FFFFFF" opacity="1.000000" stroke="none" 
	d="
M59.468735,82.000000 
	C62.506382,78.947357 66.012764,75.894714 69.717560,72.584106 
	C76.320297,70.789902 80.298424,66.951752 81.659470,60.153751 
	C82.000000,67.261238 82.000000,74.522484 82.000000,82.000000 
	C74.647232,82.000000 67.292351,82.000000 59.468735,82.000000 
z"/>
<path fill="#FFFFFF" opacity="1.000000" stroke="none" 
	d="
M1.000000,63.469376 
	C3.969412,66.917900 6.011823,71.908363 12.087392,72.186508 
	C12.684967,72.213867 13.337627,73.543213 13.764442,74.371437 
	C15.863358,78.444351 19.045366,80.913483 23.845951,81.659431 
	C16.414389,82.000000 8.828775,82.000000 1.000000,82.000000 
	C1.000000,75.981750 1.000000,69.960251 1.000000,63.469376 
z"/>
<path fill="#FFFFFF" opacity="1.000000" stroke="none" 
	d="
M82.000000,54.531364 
	C79.610931,50.539120 78.168167,45.265896 72.175522,43.457516 
	C76.669632,40.418156 80.824051,37.277157 81.643417,31.129011 
	C82.000000,38.687576 82.000000,46.375153 82.000000,54.531364 
z"/>
<path fill="#FFFFFF" opacity="1.000000" stroke="none" 
	d="
M40.830879,72.765945 
	C44.193722,76.575836 46.733971,81.227737 52.862648,81.646927 
	C45.645748,82.000000 38.291496,82.000000 30.468624,82.000000 
	C33.502289,78.981819 37.004574,75.963638 40.830879,72.765945 
z"/>
<path fill="#FFFFFF" opacity="1.000000" stroke="none" 
	d="
M49.532059,1.000000 
	C47.214149,3.948644 44.428303,6.897288 41.321259,10.006298 
	C38.083237,7.328701 35.166409,4.490739 32.124790,1.326389 
	C37.688042,1.000000 43.376080,1.000000 49.532059,1.000000 
z"/>
<path fill="#FFFFFF" opacity="1.000000" stroke="none" 
	d="
M1.000000,34.467941 
	C3.785583,36.959961 6.571165,39.919926 9.676347,43.026970 
	C7.213228,46.031914 4.430510,48.889778 1.323896,51.873821 
	C1.000000,46.311958 1.000000,40.623920 1.000000,34.467941 
z"/>
<path fill="#FCFDFE" opacity="1.000000" stroke="none" 
	d="
M62.363228,71.640305 
	C55.449688,72.033356 48.758701,72.192337 41.610096,72.385834 
	C35.495682,72.341110 29.838448,72.285011 24.182209,72.176872 
	C16.771832,72.035202 12.150437,67.416359 12.016932,59.923946 
	C11.921990,54.595715 11.979938,49.264759 11.901850,43.471519 
	C11.891085,37.926495 12.122063,32.839401 11.959476,27.764915 
	C11.772036,21.914776 13.920962,17.596113 19.583733,14.894682 
	C26.639688,14.523960 33.355804,14.243734 40.535618,13.895617 
	C50.361034,13.883698 59.722759,13.939673 69.554749,13.993328 
	C69.805244,21.814545 65.124474,26.719105 57.394409,26.964060 
	C52.246464,27.127192 47.089691,27.011869 41.010925,27.023939 
	C35.161945,27.026703 30.238905,27.026703 25.068048,27.026703 
	C25.068048,32.690151 25.068048,37.928177 24.994774,43.618454 
	C24.921497,49.315090 24.921497,54.559464 24.921497,60.413395 
	C30.821201,59.944206 35.894283,59.540752 41.428108,59.245056 
	C51.202587,59.388676 60.516323,59.424538 69.830055,59.460400 
	C70.601357,65.374451 67.381889,68.868401 62.363228,71.640305 
z"/>
<path fill="#3D86CF" opacity="1.000000" stroke="none" 
	d="
M69.872787,58.964317 
	C60.516323,59.424538 51.202587,59.388676 41.443058,58.769588 
	C41.015110,53.257751 41.032959,48.329140 41.025520,43.273247 
	C41.000237,43.145969 40.969368,42.888279 40.969368,42.888275 
	C50.359867,43.039619 59.750362,43.190964 69.609314,43.419895 
	C70.023682,48.487736 69.969597,53.477989 69.872787,58.964317 
z"/>
<path fill="#E22631" opacity="1.000000" stroke="none" 
	d="
M25.068048,43.166199 
	C25.068048,37.928177 25.068048,32.690151 25.068048,27.026703 
	C30.238905,27.026703 35.161945,27.026703 40.548302,27.097103 
	C41.002762,32.101738 40.993896,37.035973 40.977200,42.429241 
	C40.969368,42.888279 41.000237,43.145969 40.564713,43.174850 
	C35.108810,43.191223 30.088430,43.178711 25.068048,43.166199 
z"/>
<path fill="#1D9BF0" opacity="1.000000" stroke="none" 
	d="
M24.994774,43.618454 
	C30.088430,43.178711 35.108810,43.191223 40.590000,43.302132 
	C41.032959,48.329140 41.015110,53.257751 40.982315,58.661835 
	C35.894283,59.540752 30.821201,59.944206 24.921497,60.413395 
	C24.921497,54.559464 24.921497,49.315090 24.994774,43.618454 
z"/>
</svg>